<?xml version="1.0" encoding="UTF-8" standalone="no"?>
<svg
   height="1080"
   width="1920"
   version="1.1"
   id="svg7"
   sodipodi:docname="asset_store.svg"
   inkscape:version="1.4.2 (f4327f4, 2025-05-13)"
   xml:space="preserve"
   xmlns:inkscape="http://www.inkscape.org/namespaces/inkscape"
   xmlns:sodipodi="http://sodipodi.sourceforge.net/DTD/sodipodi-0.dtd"
   xmlns="http://www.w3.org/2000/svg"
   xmlns:svg="http://www.w3.org/2000/svg"><defs
     id="defs7" /><sodipodi:namedview
     id="namedview7"
     pagecolor="#212532"
     bordercolor="#000000"
     borderopacity="0.25"
     inkscape:showpageshadow="2"
     inkscape:pageopacity="0.0"
     inkscape:pagecheckerboard="0"
     inkscape:deskcolor="#d1d1d1"
     inkscape:zoom="0.40292657"
     inkscape:cx="517.46401"
     inkscape:cy="413.22666"
     inkscape:window-width="2560"
     inkscape:window-height="1369"
     inkscape:window-x="-8"
     inkscape:window-y="-8"
     inkscape:window-maximized="1"
     inkscape:current-layer="svg7" /><rect
     x="692.43372"
     y="408.75458"
     width="535.13263"
     height="535.13263"
     rx="60.418198"
     fill="#363d52"
     stroke="#212532"
     stroke-width="17.2623"
     id="rect1"
     style="display:none" /><g
     inkscape:groupmode="layer"
     id="layer1"
     inkscape:label="Layer 1"
     transform="matrix(0.02950466,0,0,0.02950466,102.14153,53.686552)" /><g
     transform="matrix(0.16188112,0,0,0.16188112,-532.0223,-351.41729)"
     id="g7"><g
       fill="#ffffff"
       id="g4"><path
         d="m 7460.3342,7270.5082 v 142.4143 q 1756.4432,1527.7173 3512.8868,0 v -142.4143 z"
         id="path1"
         style="stroke-width:4.31559" /><path
         fill="#478cbf"
         d="m 7460.3342,7270.5082 655.9689,60.4182 c 34.5247,2.8771 56.1026,23.0164 64.7338,60.4182 l 17.2623,289.1442 569.6573,43.1559 34.5247,-263.2508 c 5.7541,-31.6476 27.332,-53.2255 64.7338,-64.7337 h 699.1248 c 37.4018,11.5082 58.9797,33.0861 64.7338,64.7337 l 34.5247,263.2508 569.6577,-43.1559 17.262,-289.1442 c 8.631,-37.4018 30.209,-57.5411 64.734,-60.4182 l 655.969,-60.4182 V 6208.8741 c 86.311,-112.2052 166.869,-228.726 241.673,-349.5624 -100.697,-169.7463 -323.659,-269.7163 -423.806,-292.6792 -70.446,-18.0493 -176.061,-48.252 -288.266,29.4285 -115.082,-106.4511 -241.673,-198.5169 -379.772,-276.1975 20.14,-146.7299 31.648,-293.4598 34.525,-440.1896 -169.7463,-80.5577 -346.6853,-140.9758 -530.817,-181.2546 -74.8034,123.7134 -140.9758,251.7424 -198.5169,384.087 -140.9758,-20.1394 -281.9516,-20.1394 -422.9274,0 -57.5411,-132.3446 -123.7134,-260.3736 -198.5169,-384.087 -184.1317,40.2788 -361.0707,100.6969 -530.817,181.2546 2.877,146.7298 14.3852,293.4597 34.5247,440.1896 -138.0988,77.6806 -264.6893,169.7464 -379.7716,276.1975 -112.2052,-77.6805 -208.1981,-74.0778 -329.8764,-69.3912 -118.225,0 -281.4981,162.8956 -382.1951,332.6419 74.8034,120.8364 155.361,237.3572 241.6728,349.5624 z m 0,142.4143 v 168.3078 c 0,1191.1016 3508.5708,1191.1016 3508.5708,0 v -168.3078 l -578.288,51.787 -21.578,297.7754 c -5.754,28.7706 -25.894,47.4715 -60.418,56.1026 l -699.1253,47.4715 c -34.5247,0 -57.5411,-15.8238 -69.0494,-47.4715 l -43.1558,-280.513 h -561.0261 l -43.1559,280.513 c -11.5082,31.6477 -34.5247,47.4715 -69.0494,47.4715 l -699.1248,-47.4715 c -34.5247,-8.6311 -54.6641,-27.332 -60.4182,-56.1026 l -21.5779,-297.7754 z"
         id="path2"
         style="fill:#e3b9e6;fill-opacity:1;stroke-width:4.31559"
         sodipodi:nodetypes="ccccccccccccccccccccccccccccccccsscccccccccccccc" /><path
         d="m 9227.2364,6169.3794 c -247.4867,0 -380.844,15.3344 -555.8247,102.4431 -174.9807,87.1088 -385.4495,238.8569 -385.4005,362.034 0.684,30.6579 7.4665,61.2067 20.2483,91.1992 80.3304,-220.5756 465.7841,-365.2668 916.1835,-365.7224 443.8865,0.4383 825.7,140.6253 912.976,357.2411 10.504,-27.2696 16.073,-54.9531 16.64,-82.7179 0.05,-123.1771 -187.2302,-264.2903 -377.4947,-350.5017 -179.4524,-81.3124 -299.8411,-113.9733 -547.3279,-113.9754 z"
         style="fill:#cca1d0;fill-opacity:1;stroke-width:7.31388"
         id="path12-5-7"
         sodipodi:nodetypes="cscccccsc" /><circle
         cx="10135.997"
         cy="6636.1172"
         r="388.40271"
         id="circle3"
         style="stroke-width:4.31559" /><path
         d="m 9269.2664,4209.7027 c -650.6218,0.01 -1000.7354,50.1941 -1460.7451,341.9844 -460.0096,291.7903 -1013.3143,800.1045 -1013.1857,1212.714 1.7983,102.6954 19.629,205.0254 53.2311,305.492 211.1819,-738.8672 1242.4405,-1582.7193 2417.943,-1582.7483 1175.5023,-0.029 2161.3233,828.7352 2390.7643,1554.3382 27.614,-91.3456 42.254,-184.0776 43.744,-277.0819 0.13,-412.6095 -492.211,-885.2998 -992.4,-1174.0842 -471.766,-272.374 -788.7297,-380.6072 -1439.3516,-380.6142 z"
         style="display:none;fill:#2b3046;fill-opacity:1;stroke-width:21.704"
         id="path12"
         sodipodi:nodetypes="cscczccsc" /><path
         d="m 9217.0257,5339.3457 c -445.2643,0 -686.8406,27.5887 -1001.6562,184.3099 -314.8156,156.7213 -693.4793,429.738 -693.3913,651.3516 1.2308,55.1579 13.4335,110.1196 36.4297,164.0805 144.5259,-396.8474 838.0128,-763.0068 1648.3465,-763.8265 798.6166,0.7887 1485.5546,358.8442 1642.5756,748.5674 18.898,-49.062 28.918,-98.8686 29.938,-148.8214 0.09,-221.6136 -336.854,-475.4966 -679.167,-630.6034 -322.8612,-146.2928 -537.8107,-205.0544 -983.0753,-205.0581 z"
         style="fill:#cca1d0;fill-opacity:1;stroke-width:13.1587"
         id="path12-5"
         sodipodi:nodetypes="cscccccsc" /><circle
         cx="8297.5576"
         cy="6636.1172"
         r="388.40271"
         id="circle4"
         style="stroke-width:4.31559" /><ellipse
         cx="9214.7266"
         cy="7007.2769"
         id="circle7"
         rx="388.40271"
         ry="242.59007"
         style="stroke-width:3.41063" /></g><g
       fill="#414042"
       id="g6"
       transform="matrix(4.3155855,0,0,4.3155855,7007.1977,4366.1192)"
       style="fill:#212532;fill-opacity:1"><circle
         cx="307"
         cy="532"
         r="60"
         id="circle5"
         style="fill:#212532;fill-opacity:1" /><circle
         cx="717"
         cy="532"
         r="60"
         id="circle6"
         style="fill:#212532;fill-opacity:1" /><circle
         cx="475.26419"
         cy="618.67914"
         r="25.444653"
         id="circle8"
         style="stroke-width:0.424078;fill:#212532;fill-opacity:1" /><circle
         cx="548.4541"
         cy="618.77228"
         r="25.444653"
         id="circle9"
         style="stroke-width:0.424078;fill:#212532;fill-opacity:1" /></g></g><text
     xml:space="preserve"
     style="font-style:normal;font-variant:normal;font-weight:normal;font-stretch:normal;font-size:192px;line-height:1.45;font-family:Montserrat;-inkscape-font-specification:Montserrat;text-align:start;writing-mode:lr-tb;direction:ltr;text-anchor:start;fill:#ffffff;fill-opacity:1"
     x="424.79608"
     y="201.96272"
     id="text12"><tspan
       sodipodi:role="line"
       id="tspan12"
       x="424.79608"
       y="201.96272"
       style="font-style:normal;font-variant:normal;font-weight:600;font-stretch:normal;font-size:192px;line-height:1.45;font-family:Montserrat;-inkscape-font-specification:'Montserrat Semi-Bold';fill:#ffffff;fill-opacity:1">Piggyback</tspan></text><text
     xml:space="preserve"
     style="font-size:96px;line-height:1.45;text-align:start;writing-mode:lr-tb;direction:ltr;text-anchor:start;fill:#cca1d0;fill-opacity:1"
     x="498.86417"
     y="335.01471"
     id="text13"><tspan
       sodipodi:role="line"
       id="tspan13"
       x="498.86417"
       y="335.01471"
       style="font-style:normal;font-variant:normal;font-weight:normal;font-stretch:normal;font-size:96px;font-family:Montserrat;-inkscape-font-specification:Montserrat;fill:#cca1d0;fill-opacity:1">Serverless WebRTC</tspan></text><circle
     id="path13"
     style="fill:#ffffff;stroke:#000000"
     cx="620.46045"
     cy="201.02919"
     r="1.2494321" /></svg>
